# xmcd
# Track frame offsets:
# 150
# 13662
# 28585
# 40955
# 54005
# 67200
# 78822
# 93297
# 105610
# 118795
# 129867
# 141540
# 152275
#
# Disc length: 2194 seconds
# Revision: 0
# Processed by: cddbd v1.4PL0 Copyright (c) Steve Scherf et al.
# Submitted via: VisiTrax 2.9.5.181 - For more info visit www.synapsa.com
#
DISCID=9f08900d
DTITLE=Anette Klingenberg - Weep no more
DYEAR=1997
DGENRE=
TTITLE0=Weep no more - My baby
TTITLE1=Down to my last tearsdrop
TTITLE2=Little devil
TTITLE3=Too many rivers
TTITLE4=Be my baby
TTITLE5=It's a little too late
TTITLE6=One more minute
TTITLE7=A teenager in love
TTITLE8=Let's jump the broomstick
TTITLE9=When you walk in the room
TTITLE10=I only want to be with you
TTITLE11=I'm sorry
TTITLE12=Oh what a night (Sam)
EXTD=
EXTT0=
EXTT1=
EXTT2=
EXTT3=
EXTT4=
EXTT5=
EXTT6=
EXTT7=
EXTT8=
EXTT9=
EXTT10=
EXTT11=
EXTT12=
PLAYORDER=
